# xmcd
#
# Track frame offsets:
#	150
#	30506
#	47916
#	69491
#	92270
#	114326
#	147669
#	165858
#	174268
#	204995
#	240839
#	267533
#	307785
#
# Disc length: 4291 seconds
#
# Revision: 0
# Processed by: cddbd v1.5.1PL0 Copyright (c) Steve Scherf et al.
# Submitted via: dBpowerAMP V4.0
#
DISCID=9b10c10d
DTITLE=Various Artist - De nachten
DYEAR=1900
DGENRE=
TTITLE0=The Sea - 
TTITLE1=Ship in the Sand - 
TTITLE2=So slow - 
TTITLE3=If only - 
TTITLE4=Bad man - 
TTITLE5=I left you - 
TTITLE6=Jealous guy - 
TTITLE7=Happy Birthday - 
TTITLE8=The river song - 
TTITLE9=bonus track - 
TTITLE10=bonus track - 
TTITLE11=bonus track - Sophia
TTITLE12=bonus track - 
EXTD=
EXTT0=
EXTT1=
EXTT2=
EXTT3=
EXTT4=
EXTT5=
EXTT6=
EXTT7=
EXTT8=
EXTT9=
EXTT10=
EXTT11=
EXTT12=
PLAYORDER=
